<mxfile host="app.diagrams.net" modified="2024-04-23T10:53:52.920Z" agent="Mozilla/5.0 (Windows NT 10.0; Win64; x64) AppleWebKit/537.36 (KHTML, like Gecko) Chrome/123.0.0.0 Safari/537.36" etag="MoYVTXbx6MV_1tEs8fog" version="24.2.8" type="github">
  <diagram name="第 1 页" id="5qMO6yTzUKrUn-y94hgJ">
    <mxGraphModel dx="289" dy="1651" grid="1" gridSize="10" guides="1" tooltips="1" connect="1" arrows="1" fold="1" page="1" pageScale="1" pageWidth="827" pageHeight="1169" math="0" shadow="0">
      <root>
        <mxCell id="0" />
        <mxCell id="1" parent="0" />
        <mxCell id="WcCvUIvXdRRLqWlLGfSQ-50" value="" style="rounded=0;whiteSpace=wrap;html=1;" vertex="1" parent="1">
          <mxGeometry x="280" y="250" width="390" height="230" as="geometry" />
        </mxCell>
        <mxCell id="WcCvUIvXdRRLqWlLGfSQ-1" value="&lt;font face=&quot;Times New Roman&quot; style=&quot;font-size: 16px;&quot;&gt;&lt;b&gt;ff&lt;/b&gt;&lt;/font&gt;" style="rounded=0;whiteSpace=wrap;html=1;" vertex="1" parent="1">
          <mxGeometry x="120" y="-320" width="70" height="120" as="geometry" />
        </mxCell>
        <mxCell id="WcCvUIvXdRRLqWlLGfSQ-3" value="clk" style="html=1;verticalAlign=bottom;endArrow=block;curved=0;rounded=0;" edge="1" parent="1">
          <mxGeometry width="80" relative="1" as="geometry">
            <mxPoint x="200" y="280" as="sourcePoint" />
            <mxPoint x="280" y="280" as="targetPoint" />
          </mxGeometry>
        </mxCell>
        <mxCell id="WcCvUIvXdRRLqWlLGfSQ-4" value="&lt;font style=&quot;font-size: 16px;&quot;&gt;TDCchannel&lt;/font&gt;" style="text;strokeColor=none;fillColor=none;html=1;fontSize=24;fontStyle=1;verticalAlign=middle;align=center;" vertex="1" parent="1">
          <mxGeometry x="392.5" y="440" width="165" height="40" as="geometry" />
        </mxCell>
        <mxCell id="WcCvUIvXdRRLqWlLGfSQ-6" value="hit" style="html=1;verticalAlign=bottom;endArrow=block;curved=0;rounded=0;" edge="1" parent="1">
          <mxGeometry width="80" relative="1" as="geometry">
            <mxPoint x="200" y="320" as="sourcePoint" />
            <mxPoint x="280" y="320" as="targetPoint" />
          </mxGeometry>
        </mxCell>
        <mxCell id="WcCvUIvXdRRLqWlLGfSQ-9" value="addr" style="html=1;verticalAlign=bottom;endArrow=block;curved=0;rounded=0;" edge="1" parent="1">
          <mxGeometry width="80" relative="1" as="geometry">
            <mxPoint x="670" y="280" as="sourcePoint" />
            <mxPoint x="750" y="280" as="targetPoint" />
          </mxGeometry>
        </mxCell>
        <mxCell id="WcCvUIvXdRRLqWlLGfSQ-10" value="data" style="html=1;verticalAlign=bottom;endArrow=block;curved=0;rounded=0;" edge="1" parent="1">
          <mxGeometry width="80" relative="1" as="geometry">
            <mxPoint x="670" y="320" as="sourcePoint" />
            <mxPoint x="750" y="320" as="targetPoint" />
          </mxGeometry>
        </mxCell>
        <mxCell id="WcCvUIvXdRRLqWlLGfSQ-11" value="we" style="html=1;verticalAlign=bottom;endArrow=block;curved=0;rounded=0;" edge="1" parent="1">
          <mxGeometry width="80" relative="1" as="geometry">
            <mxPoint x="670" y="360" as="sourcePoint" />
            <mxPoint x="750" y="360" as="targetPoint" />
          </mxGeometry>
        </mxCell>
        <mxCell id="WcCvUIvXdRRLqWlLGfSQ-12" value="run" style="html=1;verticalAlign=bottom;endArrow=block;curved=0;rounded=0;" edge="1" parent="1">
          <mxGeometry width="80" relative="1" as="geometry">
            <mxPoint x="200" y="430" as="sourcePoint" />
            <mxPoint x="280" y="430" as="targetPoint" />
          </mxGeometry>
        </mxCell>
        <mxCell id="WcCvUIvXdRRLqWlLGfSQ-14" value="clr" style="html=1;verticalAlign=bottom;endArrow=block;curved=0;rounded=0;" edge="1" parent="1">
          <mxGeometry width="80" relative="1" as="geometry">
            <mxPoint x="200" y="459.5" as="sourcePoint" />
            <mxPoint x="280" y="459.5" as="targetPoint" />
          </mxGeometry>
        </mxCell>
        <mxCell id="WcCvUIvXdRRLqWlLGfSQ-15" value="rdy" style="html=1;verticalAlign=bottom;endArrow=block;curved=0;rounded=0;" edge="1" parent="1">
          <mxGeometry width="80" relative="1" as="geometry">
            <mxPoint x="670" y="430" as="sourcePoint" />
            <mxPoint x="750" y="430" as="targetPoint" />
          </mxGeometry>
        </mxCell>
        <mxCell id="WcCvUIvXdRRLqWlLGfSQ-16" value="full" style="html=1;verticalAlign=bottom;endArrow=block;curved=0;rounded=0;" edge="1" parent="1">
          <mxGeometry width="80" relative="1" as="geometry">
            <mxPoint x="670" y="459.5" as="sourcePoint" />
            <mxPoint x="750" y="459.5" as="targetPoint" />
          </mxGeometry>
        </mxCell>
        <mxCell id="WcCvUIvXdRRLqWlLGfSQ-17" value="trigger_in" style="html=1;verticalAlign=bottom;endArrow=block;curved=0;rounded=0;" edge="1" parent="1">
          <mxGeometry width="80" relative="1" as="geometry">
            <mxPoint x="474.5" y="170" as="sourcePoint" />
            <mxPoint x="474.5" y="250" as="targetPoint" />
          </mxGeometry>
        </mxCell>
        <mxCell id="WcCvUIvXdRRLqWlLGfSQ-18" value="trigger_out" style="html=1;verticalAlign=bottom;endArrow=block;curved=0;rounded=0;" edge="1" parent="1">
          <mxGeometry width="80" relative="1" as="geometry">
            <mxPoint x="474.5" y="480" as="sourcePoint" />
            <mxPoint x="474.5" y="560" as="targetPoint" />
          </mxGeometry>
        </mxCell>
        <mxCell id="WcCvUIvXdRRLqWlLGfSQ-19" value="" style="rounded=1;whiteSpace=wrap;html=1;" vertex="1" parent="1">
          <mxGeometry x="255" y="650" width="440" height="90" as="geometry" />
        </mxCell>
        <mxCell id="WcCvUIvXdRRLqWlLGfSQ-20" value="&lt;span style=&quot;font-size: 16px;&quot;&gt;Delay_line&lt;/span&gt;" style="text;strokeColor=none;fillColor=none;html=1;fontSize=24;fontStyle=1;verticalAlign=middle;align=center;" vertex="1" parent="1">
          <mxGeometry x="392.5" y="700" width="165" height="40" as="geometry" />
        </mxCell>
        <mxCell id="WcCvUIvXdRRLqWlLGfSQ-21" value="clk" style="html=1;verticalAlign=bottom;endArrow=block;curved=0;rounded=0;" edge="1" parent="1">
          <mxGeometry width="80" relative="1" as="geometry">
            <mxPoint x="175" y="680" as="sourcePoint" />
            <mxPoint x="255" y="680" as="targetPoint" />
          </mxGeometry>
        </mxCell>
        <mxCell id="WcCvUIvXdRRLqWlLGfSQ-22" value="hit" style="html=1;verticalAlign=bottom;endArrow=block;curved=0;rounded=0;" edge="1" parent="1">
          <mxGeometry width="80" relative="1" as="geometry">
            <mxPoint x="175" y="700" as="sourcePoint" />
            <mxPoint x="255" y="700" as="targetPoint" />
          </mxGeometry>
        </mxCell>
        <mxCell id="WcCvUIvXdRRLqWlLGfSQ-23" value="enable" style="html=1;verticalAlign=bottom;endArrow=block;curved=0;rounded=0;" edge="1" parent="1">
          <mxGeometry width="80" relative="1" as="geometry">
            <mxPoint x="175" y="719.5" as="sourcePoint" />
            <mxPoint x="255" y="719.5" as="targetPoint" />
          </mxGeometry>
        </mxCell>
        <mxCell id="WcCvUIvXdRRLqWlLGfSQ-24" value="thermo" style="html=1;verticalAlign=bottom;endArrow=block;curved=0;rounded=0;" edge="1" parent="1">
          <mxGeometry width="80" relative="1" as="geometry">
            <mxPoint x="695" y="680" as="sourcePoint" />
            <mxPoint x="775" y="680" as="targetPoint" />
          </mxGeometry>
        </mxCell>
        <mxCell id="WcCvUIvXdRRLqWlLGfSQ-25" value="valid" style="html=1;verticalAlign=bottom;endArrow=block;curved=0;rounded=0;" edge="1" parent="1">
          <mxGeometry width="80" relative="1" as="geometry">
            <mxPoint x="695" y="719.5" as="sourcePoint" />
            <mxPoint x="775" y="719.5" as="targetPoint" />
          </mxGeometry>
        </mxCell>
        <mxCell id="WcCvUIvXdRRLqWlLGfSQ-31" value="&lt;font style=&quot;font-size: 16px;&quot;&gt;&lt;b&gt;enable&lt;/b&gt;&lt;/font&gt;" style="strokeWidth=2;html=1;shape=mxgraph.flowchart.decision;whiteSpace=wrap;" vertex="1" parent="1">
          <mxGeometry x="80" y="860" width="170" height="80" as="geometry" />
        </mxCell>
        <mxCell id="WcCvUIvXdRRLqWlLGfSQ-34" value="" style="edgeStyle=segmentEdgeStyle;endArrow=classic;html=1;curved=0;rounded=0;endSize=8;startSize=8;" edge="1" parent="1">
          <mxGeometry width="50" height="50" relative="1" as="geometry">
            <mxPoint x="250" y="900" as="sourcePoint" />
            <mxPoint x="360" y="1080" as="targetPoint" />
            <Array as="points">
              <mxPoint x="360" y="900" />
              <mxPoint x="360" y="1060" />
            </Array>
          </mxGeometry>
        </mxCell>
        <UserObject label="0" placeholders="1" name="Variable" id="WcCvUIvXdRRLqWlLGfSQ-36">
          <mxCell style="text;html=1;strokeColor=none;fillColor=none;align=center;verticalAlign=middle;whiteSpace=wrap;overflow=hidden;" vertex="1" parent="1">
            <mxGeometry x="270" y="880" width="80" height="20" as="geometry" />
          </mxCell>
        </UserObject>
        <mxCell id="WcCvUIvXdRRLqWlLGfSQ-38" value="&lt;div&gt;&lt;br&gt;&lt;/div&gt;&lt;b style=&quot;forced-color-adjust: none; color: rgb(0, 0, 0); font-family: Helvetica; font-size: 16px; font-style: normal; font-variant-ligatures: normal; font-variant-caps: normal; letter-spacing: normal; orphans: 2; text-align: center; text-indent: 0px; text-transform: none; widows: 2; word-spacing: 0px; -webkit-text-stroke-width: 0px; white-space: normal; background-color: rgb(251, 251, 251); text-decoration-thickness: initial; text-decoration-style: initial; text-decoration-color: initial;&quot;&gt;hitQ = 0&lt;/b&gt;&lt;div&gt;&lt;br&gt;&lt;/div&gt;" style="strokeWidth=2;html=1;shape=mxgraph.flowchart.terminator;whiteSpace=wrap;" vertex="1" parent="1">
          <mxGeometry x="290" y="1080" width="140" height="60" as="geometry" />
        </mxCell>
        <mxCell id="WcCvUIvXdRRLqWlLGfSQ-39" value="" style="edgeStyle=segmentEdgeStyle;endArrow=classic;html=1;curved=0;rounded=0;endSize=8;startSize=8;exitX=0.5;exitY=1;exitDx=0;exitDy=0;exitPerimeter=0;" edge="1" parent="1" source="WcCvUIvXdRRLqWlLGfSQ-31">
          <mxGeometry width="50" height="50" relative="1" as="geometry">
            <mxPoint x="164.5" y="940" as="sourcePoint" />
            <mxPoint x="165" y="990" as="targetPoint" />
            <Array as="points" />
          </mxGeometry>
        </mxCell>
        <UserObject label="1" placeholders="1" name="Variable" id="WcCvUIvXdRRLqWlLGfSQ-40">
          <mxCell style="text;html=1;strokeColor=none;fillColor=none;align=center;verticalAlign=middle;whiteSpace=wrap;overflow=hidden;" vertex="1" parent="1">
            <mxGeometry x="180" y="950" width="30" height="20" as="geometry" />
          </mxCell>
        </UserObject>
        <mxCell id="WcCvUIvXdRRLqWlLGfSQ-42" value="&lt;font style=&quot;font-size: 16px;&quot;&gt;&lt;b&gt;clear&lt;/b&gt;&lt;/font&gt;" style="strokeWidth=2;html=1;shape=mxgraph.flowchart.decision;whiteSpace=wrap;" vertex="1" parent="1">
          <mxGeometry x="80" y="990" width="170" height="80" as="geometry" />
        </mxCell>
        <mxCell id="WcCvUIvXdRRLqWlLGfSQ-43" value="" style="edgeStyle=segmentEdgeStyle;endArrow=classic;html=1;curved=0;rounded=0;endSize=8;startSize=8;" edge="1" parent="1">
          <mxGeometry width="50" height="50" relative="1" as="geometry">
            <mxPoint x="250" y="1030" as="sourcePoint" />
            <mxPoint x="360" y="1080" as="targetPoint" />
            <Array as="points">
              <mxPoint x="360" y="1030" />
            </Array>
          </mxGeometry>
        </mxCell>
        <UserObject label="1" placeholders="1" name="Variable" id="WcCvUIvXdRRLqWlLGfSQ-44">
          <mxCell style="text;html=1;strokeColor=none;fillColor=none;align=center;verticalAlign=middle;whiteSpace=wrap;overflow=hidden;" vertex="1" parent="1">
            <mxGeometry x="290" y="1010" width="40" height="20" as="geometry" />
          </mxCell>
        </UserObject>
        <mxCell id="WcCvUIvXdRRLqWlLGfSQ-45" value="" style="edgeStyle=segmentEdgeStyle;endArrow=classic;html=1;curved=0;rounded=0;endSize=8;startSize=8;exitX=0.5;exitY=1;exitDx=0;exitDy=0;exitPerimeter=0;" edge="1" parent="1">
          <mxGeometry width="50" height="50" relative="1" as="geometry">
            <mxPoint x="164.5" y="1070" as="sourcePoint" />
            <mxPoint x="164.5" y="1120" as="targetPoint" />
            <Array as="points" />
          </mxGeometry>
        </mxCell>
        <UserObject label="0" placeholders="1" name="Variable" id="WcCvUIvXdRRLqWlLGfSQ-48">
          <mxCell style="text;html=1;strokeColor=none;fillColor=none;align=center;verticalAlign=middle;whiteSpace=wrap;overflow=hidden;" vertex="1" parent="1">
            <mxGeometry x="180" y="1090" width="30" height="20" as="geometry" />
          </mxCell>
        </UserObject>
        <mxCell id="WcCvUIvXdRRLqWlLGfSQ-49" value="&lt;div&gt;&lt;br&gt;&lt;/div&gt;&lt;b style=&quot;forced-color-adjust: none; color: rgb(0, 0, 0); font-family: Helvetica; font-size: 16px; font-style: normal; font-variant-ligatures: normal; font-variant-caps: normal; letter-spacing: normal; orphans: 2; text-align: center; text-indent: 0px; text-transform: none; widows: 2; word-spacing: 0px; -webkit-text-stroke-width: 0px; white-space: normal; background-color: rgb(251, 251, 251); text-decoration-thickness: initial; text-decoration-style: initial; text-decoration-color: initial;&quot;&gt;hitQ = rising hit&lt;/b&gt;&lt;div&gt;&lt;b style=&quot;forced-color-adjust: none; color: rgb(0, 0, 0); font-family: Helvetica; font-size: 16px; font-style: normal; font-variant-ligatures: normal; font-variant-caps: normal; letter-spacing: normal; orphans: 2; text-align: center; text-indent: 0px; text-transform: none; widows: 2; word-spacing: 0px; -webkit-text-stroke-width: 0px; white-space: normal; background-color: rgb(251, 251, 251); text-decoration-thickness: initial; text-decoration-style: initial; text-decoration-color: initial;&quot;&gt;&lt;br&gt;&lt;/b&gt;&lt;/div&gt;" style="strokeWidth=2;html=1;shape=mxgraph.flowchart.terminator;whiteSpace=wrap;" vertex="1" parent="1">
          <mxGeometry x="95" y="1120" width="140" height="60" as="geometry" />
        </mxCell>
        <mxCell id="WcCvUIvXdRRLqWlLGfSQ-51" value="&lt;font size=&quot;1&quot; face=&quot;Times New Roman&quot;&gt;&lt;b style=&quot;font-size: 16px;&quot;&gt;ff&lt;/b&gt;&lt;/font&gt;" style="rounded=0;whiteSpace=wrap;html=1;" vertex="1" parent="1">
          <mxGeometry x="290" y="-320" width="70" height="120" as="geometry" />
        </mxCell>
        <mxCell id="WcCvUIvXdRRLqWlLGfSQ-52" value="carryout" style="html=1;verticalAlign=bottom;endArrow=block;curved=0;rounded=0;" edge="1" parent="1">
          <mxGeometry width="80" relative="1" as="geometry">
            <mxPoint x="40" y="-260.5" as="sourcePoint" />
            <mxPoint x="120" y="-260.5" as="targetPoint" />
          </mxGeometry>
        </mxCell>
        <mxCell id="WcCvUIvXdRRLqWlLGfSQ-53" value="metaThermo" style="html=1;verticalAlign=bottom;endArrow=block;curved=0;rounded=0;entryX=0;entryY=0.5;entryDx=0;entryDy=0;" edge="1" parent="1" target="WcCvUIvXdRRLqWlLGfSQ-51">
          <mxGeometry width="80" relative="1" as="geometry">
            <mxPoint x="190" y="-260.5" as="sourcePoint" />
            <mxPoint x="270" y="-260.5" as="targetPoint" />
            <mxPoint as="offset" />
          </mxGeometry>
        </mxCell>
        <mxCell id="WcCvUIvXdRRLqWlLGfSQ-54" value="thermo_s" style="html=1;verticalAlign=bottom;endArrow=block;curved=0;rounded=0;entryX=0;entryY=0.5;entryDx=0;entryDy=0;" edge="1" parent="1">
          <mxGeometry width="80" relative="1" as="geometry">
            <mxPoint x="360" y="-260.5" as="sourcePoint" />
            <mxPoint x="460" y="-260" as="targetPoint" />
          </mxGeometry>
        </mxCell>
        <mxCell id="WcCvUIvXdRRLqWlLGfSQ-55" value="&lt;span style=&quot;color: rgb(0, 0, 0); font-style: normal; font-variant-ligatures: normal; font-variant-caps: normal; letter-spacing: normal; orphans: 2; text-align: center; text-indent: 0px; text-transform: none; widows: 2; word-spacing: 0px; -webkit-text-stroke-width: 0px; white-space: nowrap; background-color: rgb(255, 255, 255); text-decoration-thickness: initial; text-decoration-style: initial; text-decoration-color: initial; float: none; display: inline !important;&quot;&gt;&lt;font style=&quot;font-size: 16px;&quot; face=&quot;Times New Roman&quot;&gt;&lt;b&gt;thermo&amp;nbsp; &amp;lt;= thermo_s (carryOut打两拍)&lt;br&gt;&lt;/b&gt;&lt;/font&gt;&lt;/span&gt;&lt;div&gt;&lt;span style=&quot;color: rgb(0, 0, 0); font-style: normal; font-variant-ligatures: normal; font-variant-caps: normal; letter-spacing: normal; orphans: 2; text-align: center; text-indent: 0px; text-transform: none; widows: 2; word-spacing: 0px; -webkit-text-stroke-width: 0px; white-space: nowrap; background-color: rgb(255, 255, 255); text-decoration-thickness: initial; text-decoration-style: initial; text-decoration-color: initial; float: none; display: inline !important;&quot;&gt;&lt;b style=&quot;font-family: &amp;quot;Times New Roman&amp;quot;; font-size: 16px;&quot;&gt;valid_s&amp;nbsp; &amp;lt;= thermo_s(0)&lt;/b&gt;&lt;/span&gt;&lt;/div&gt;&lt;div&gt;&lt;span style=&quot;color: rgb(0, 0, 0); font-style: normal; font-variant-ligatures: normal; font-variant-caps: normal; letter-spacing: normal; orphans: 2; text-align: center; text-indent: 0px; text-transform: none; widows: 2; word-spacing: 0px; -webkit-text-stroke-width: 0px; white-space: nowrap; background-color: rgb(255, 255, 255); text-decoration-thickness: initial; text-decoration-style: initial; text-decoration-color: initial; float: none; display: inline !important;&quot;&gt;&lt;font style=&quot;font-size: 16px;&quot; face=&quot;Times New Roman&quot;&gt;&lt;b&gt;&amp;nbsp;检测到valid_s上升沿后，将valid信号拉高&lt;/b&gt;&lt;/font&gt;&lt;/span&gt;&lt;/div&gt;&lt;div&gt;&lt;span style=&quot;color: rgb(0, 0, 0); font-style: normal; font-variant-ligatures: normal; font-variant-caps: normal; letter-spacing: normal; orphans: 2; text-align: center; text-indent: 0px; text-transform: none; widows: 2; word-spacing: 0px; -webkit-text-stroke-width: 0px; white-space: nowrap; background-color: rgb(255, 255, 255); text-decoration-thickness: initial; text-decoration-style: initial; text-decoration-color: initial; float: none; display: inline !important;&quot;&gt;&lt;font style=&quot;font-size: 16px;&quot; face=&quot;Times New Roman&quot;&gt;&lt;b&gt;&lt;br&gt;&lt;/b&gt;&lt;/font&gt;&lt;/span&gt;&lt;/div&gt;&lt;div&gt;&lt;span style=&quot;color: rgb(0, 0, 0); font-style: normal; font-variant-ligatures: normal; font-variant-caps: normal; letter-spacing: normal; orphans: 2; text-align: center; text-indent: 0px; text-transform: none; widows: 2; word-spacing: 0px; -webkit-text-stroke-width: 0px; white-space: nowrap; background-color: rgb(255, 255, 255); text-decoration-thickness: initial; text-decoration-style: initial; text-decoration-color: initial; float: none; display: inline !important;&quot;&gt;&lt;font style=&quot;font-size: 16px;&quot; face=&quot;Times New Roman&quot;&gt;&lt;b&gt;&lt;br&gt;&lt;/b&gt;&lt;/font&gt;&lt;/span&gt;&lt;/div&gt;" style="text;whiteSpace=wrap;html=1;" vertex="1" parent="1">
          <mxGeometry x="70" y="-490" width="320" height="80" as="geometry" />
        </mxCell>
        <mxCell id="WcCvUIvXdRRLqWlLGfSQ-56" value="" style="rounded=1;whiteSpace=wrap;html=1;" vertex="1" parent="1">
          <mxGeometry x="280" y="-50" width="160" height="120" as="geometry" />
        </mxCell>
        <mxCell id="WcCvUIvXdRRLqWlLGfSQ-57" value="&lt;span style=&quot;font-size: 16px;&quot;&gt;encoder&lt;/span&gt;" style="text;strokeColor=none;fillColor=none;html=1;fontSize=24;fontStyle=1;verticalAlign=middle;align=center;" vertex="1" parent="1">
          <mxGeometry x="277.5" y="30" width="165" height="40" as="geometry" />
        </mxCell>
        <mxCell id="WcCvUIvXdRRLqWlLGfSQ-58" value="clk" style="html=1;verticalAlign=bottom;endArrow=block;curved=0;rounded=0;" edge="1" parent="1">
          <mxGeometry width="80" relative="1" as="geometry">
            <mxPoint x="200" y="-10" as="sourcePoint" />
            <mxPoint x="280" y="-10" as="targetPoint" />
          </mxGeometry>
        </mxCell>
        <mxCell id="WcCvUIvXdRRLqWlLGfSQ-59" value="hit" style="html=1;verticalAlign=bottom;endArrow=block;curved=0;rounded=0;" edge="1" parent="1">
          <mxGeometry width="80" relative="1" as="geometry">
            <mxPoint x="200" y="10" as="sourcePoint" />
            <mxPoint x="280" y="10" as="targetPoint" />
          </mxGeometry>
        </mxCell>
        <mxCell id="WcCvUIvXdRRLqWlLGfSQ-60" value="enable" style="html=1;verticalAlign=bottom;endArrow=block;curved=0;rounded=0;" edge="1" parent="1">
          <mxGeometry width="80" relative="1" as="geometry">
            <mxPoint x="200" y="29.5" as="sourcePoint" />
            <mxPoint x="280" y="29.5" as="targetPoint" />
          </mxGeometry>
        </mxCell>
        <mxCell id="WcCvUIvXdRRLqWlLGfSQ-61" value="thermo" style="html=1;verticalAlign=bottom;endArrow=block;curved=0;rounded=0;" edge="1" parent="1">
          <mxGeometry width="80" relative="1" as="geometry">
            <mxPoint x="440" y="-10" as="sourcePoint" />
            <mxPoint x="520" y="-10" as="targetPoint" />
          </mxGeometry>
        </mxCell>
        <mxCell id="WcCvUIvXdRRLqWlLGfSQ-62" value="valid" style="html=1;verticalAlign=bottom;endArrow=block;curved=0;rounded=0;" edge="1" parent="1">
          <mxGeometry width="80" relative="1" as="geometry">
            <mxPoint x="440" y="30" as="sourcePoint" />
            <mxPoint x="520" y="30" as="targetPoint" />
          </mxGeometry>
        </mxCell>
      </root>
    </mxGraphModel>
  </diagram>
</mxfile>
